<mxfile host="app.diagrams.net" modified="2023-05-29T10:21:09.206Z" agent="Mozilla/5.0 (Windows NT 10.0; Win64; x64) AppleWebKit/537.36 (KHTML, like Gecko) Chrome/113.0.0.0 Safari/537.36" etag="rwqrHHMQZG6bl8dnalT9" version="21.3.2" type="device">
  <diagram name="Page-1" id="O4uOH9v47MxKEnUetfDZ">
    <mxGraphModel dx="1658" dy="759" grid="1" gridSize="10" guides="1" tooltips="1" connect="1" arrows="1" fold="1" page="1" pageScale="1" pageWidth="850" pageHeight="1100" math="0" shadow="0">
      <root>
        <mxCell id="0" />
        <mxCell id="1" parent="0" />
        <mxCell id="4p89G_S7Ih2SJ-gbVCQB-1" value="" style="ellipse;whiteSpace=wrap;html=1;" parent="1" vertex="1">
          <mxGeometry x="320" y="90" width="150" height="100" as="geometry" />
        </mxCell>
        <mxCell id="4p89G_S7Ih2SJ-gbVCQB-2" value="MODEL" style="ellipse;whiteSpace=wrap;html=1;" parent="1" vertex="1">
          <mxGeometry x="320" y="250" width="150" height="100" as="geometry" />
        </mxCell>
        <mxCell id="4p89G_S7Ih2SJ-gbVCQB-3" value="FORMAL DIAGRAM" style="ellipse;whiteSpace=wrap;html=1;" parent="1" vertex="1">
          <mxGeometry x="190" y="400" width="150" height="100" as="geometry" />
        </mxCell>
        <mxCell id="4p89G_S7Ih2SJ-gbVCQB-4" value="INFORMAL DIAGRAM&lt;br&gt;" style="ellipse;whiteSpace=wrap;html=1;" parent="1" vertex="1">
          <mxGeometry x="450" y="400" width="150" height="100" as="geometry" />
        </mxCell>
        <mxCell id="4p89G_S7Ih2SJ-gbVCQB-5" value="MODELING" style="text;html=1;strokeColor=none;fillColor=none;align=center;verticalAlign=middle;whiteSpace=wrap;rounded=0;" parent="1" vertex="1">
          <mxGeometry x="365" y="120" width="60" height="30" as="geometry" />
        </mxCell>
        <mxCell id="4p89G_S7Ih2SJ-gbVCQB-9" value="" style="endArrow=classic;html=1;rounded=0;exitX=0.5;exitY=1;exitDx=0;exitDy=0;" parent="1" source="4p89G_S7Ih2SJ-gbVCQB-1" target="4p89G_S7Ih2SJ-gbVCQB-2" edge="1">
          <mxGeometry width="50" height="50" relative="1" as="geometry">
            <mxPoint x="510" y="440" as="sourcePoint" />
            <mxPoint x="560" y="270" as="targetPoint" />
          </mxGeometry>
        </mxCell>
        <mxCell id="4p89G_S7Ih2SJ-gbVCQB-10" value="" style="endArrow=classic;html=1;rounded=0;exitX=0.5;exitY=1;exitDx=0;exitDy=0;entryX=0.4;entryY=0;entryDx=0;entryDy=0;entryPerimeter=0;" parent="1" source="4p89G_S7Ih2SJ-gbVCQB-2" target="4p89G_S7Ih2SJ-gbVCQB-4" edge="1">
          <mxGeometry width="50" height="50" relative="1" as="geometry">
            <mxPoint x="510" y="440" as="sourcePoint" />
            <mxPoint x="510" y="390" as="targetPoint" />
          </mxGeometry>
        </mxCell>
        <mxCell id="4p89G_S7Ih2SJ-gbVCQB-11" value="" style="endArrow=classic;html=1;rounded=0;entryX=0.627;entryY=0.02;entryDx=0;entryDy=0;entryPerimeter=0;" parent="1" target="4p89G_S7Ih2SJ-gbVCQB-3" edge="1">
          <mxGeometry width="50" height="50" relative="1" as="geometry">
            <mxPoint x="400" y="350" as="sourcePoint" />
            <mxPoint x="560" y="390" as="targetPoint" />
          </mxGeometry>
        </mxCell>
        <mxCell id="SvpyNHiP2-acIjDKEM6J-1" value="" style="shape=document;whiteSpace=wrap;html=1;boundedLbl=1;" vertex="1" parent="1">
          <mxGeometry x="180" y="40" width="120" height="80" as="geometry" />
        </mxCell>
      </root>
    </mxGraphModel>
  </diagram>
</mxfile>
